<svg xmlns="http://www.w3.org/2000/svg" version="1.1" xmlns:xlink="http://www.w3.org/1999/xlink" xmlns:svgjs="http://svgjs.dev/svgjs" width="1000" height="1000" viewBox="0 0 1000 1000"><rect width="1000" height="1000" fill="#0c1319"></rect><g transform="matrix(0.7,0,0,0.7,150.18884995404414,263.0435786280357)"><svg viewBox="0 0 357 242" data-background-color="#0c1319" preserveAspectRatio="xMidYMid meet" height="677" width="1000" xmlns="http://www.w3.org/2000/svg" xmlns:xlink="http://www.w3.org/1999/xlink"><g id="tight-bounds" transform="matrix(1,0,0,1,-0.0963134765625,0.0032791137695085126)"><svg viewBox="0 0 357.192626953125 241.99343872070312" height="241.99343872070312" width="357.192626953125"><g><svg></svg></g><g><svg viewBox="0 0 357.192626953125 241.99343872070312" height="241.99343872070312" width="357.192626953125"><g transform="matrix(1,0,0,1,-19.1636905670166,-5.2065582275390625)"><path xmlns="http://www.w3.org/2000/svg" d="M19.164 241.993v-236.786h357.192v236.786l-16.229 0v-3.901h12.328v-228.984h-349.39v228.984l17.339 0 0 3.901z" fill="#2c3e50" fill-rule="nonzero" stroke="none" stroke-width="1" stroke-linecap="butt" stroke-linejoin="miter" stroke-miterlimit="10" stroke-dasharray="" stroke-dashoffset="0" font-family="none" font-weight="none" font-size="none" text-anchor="none" style="mix-blend-mode: normal" data-fill-palette-color="tertiary"></path><g><path xmlns="http://www.w3.org/2000/svg" d="M52.262 246.59l-0.145-3.036c0-0.006-0.002-0.011-0.005-0.014-0.003-0.006-0.005-0.012-0.005-0.018v0c0-0.097 0.052-0.146 0.155-0.146v0c0.067 0 0.126 0.026 0.178 0.078v0c0.297 0.282 0.636 0.513 1.015 0.692 0.382 0.176 0.797 0.264 1.243 0.264v0c0.118 0 0.255-0.012 0.409-0.037 0.155-0.027 0.303-0.07 0.446-0.127 0.14-0.061 0.255-0.141 0.346-0.242 0.094-0.1 0.141-0.225 0.141-0.373v0c0-0.161-0.041-0.311-0.122-0.451-0.082-0.137-0.19-0.249-0.324-0.336v0c-0.073-0.052-0.202-0.143-0.387-0.274-0.185-0.13-0.384-0.269-0.596-0.414-0.209-0.149-0.41-0.29-0.601-0.423-0.188-0.134-0.319-0.231-0.391-0.291v0c-0.334-0.252-0.599-0.507-0.797-0.765-0.194-0.261-0.344-0.53-0.451-0.806-0.103-0.279-0.17-0.571-0.2-0.874-0.027-0.303-0.041-0.625-0.041-0.965v0c0-0.519 0.137-1.008 0.41-1.466 0.273-0.461 0.634-0.866 1.083-1.215 0.449-0.346 0.959-0.621 1.53-0.824 0.571-0.206 1.152-0.31 1.743-0.31v0c0.489 0 0.97 0.074 1.443 0.223 0.476 0.149 0.918 0.401 1.325 0.756v0c0.036 0.467 0.062 0.927 0.077 1.379 0.015 0.452 0.038 0.926 0.069 1.421v0c0 0.097-0.023 0.162-0.069 0.195-0.046 0.033-0.097 0.05-0.154 0.05v0c-0.052 0-0.096-0.018-0.132-0.054v0c-0.173-0.164-0.347-0.325-0.524-0.483-0.179-0.161-0.367-0.302-0.564-0.423-0.194-0.121-0.402-0.222-0.624-0.301-0.225-0.079-0.463-0.118-0.715-0.118v0c-0.155 0-0.31 0.014-0.464 0.041-0.158 0.027-0.299 0.076-0.423 0.146-0.127 0.07-0.229 0.164-0.305 0.282-0.079 0.118-0.118 0.27-0.119 0.455v0c0 0.215 0.026 0.401 0.078 0.556 0.052 0.155 0.174 0.307 0.368 0.455v0l2.067 1.402c0.376 0.258 0.681 0.511 0.915 0.76 0.234 0.249 0.417 0.495 0.551 0.737 0.134 0.246 0.225 0.489 0.273 0.729 0.049 0.243 0.073 0.483 0.073 0.719v0c0 0.668-0.153 1.255-0.46 1.762-0.31 0.507-0.709 0.929-1.197 1.265-0.489 0.337-1.042 0.593-1.662 0.769-0.619 0.173-1.24 0.259-1.862 0.26v0c-0.473 0-0.93-0.05-1.37-0.15-0.443-0.1-0.853-0.253-1.229-0.46zM82.17 241.91v0c0.097-1.017 0.194-2.021 0.291-3.013 0.097-0.992 0.182-2.011 0.255-3.055v0c0.015-0.246 0.039-0.414 0.073-0.505 0.033-0.094 0.117-0.156 0.25-0.186v0c0.628-0.124 1.287-0.255 1.976-0.392 0.689-0.137 1.357-0.313 2.003-0.528v0c0.021-0.009 0.055-0.014 0.1-0.014v0c0.082 0 0.123 0.03 0.123 0.091v0l-1.002 10.825c-0.021 0.243-0.047 0.411-0.077 0.506-0.03 0.091-0.112 0.152-0.246 0.182v0c-0.628 0.194-1.265 0.41-1.912 0.646-0.643 0.237-1.325 0.478-2.044 0.724v0c-0.021 0.006-0.055 0.009-0.1 0.009v0c-0.082 0-0.123-0.036-0.123-0.109v0c0-0.009 0.008-0.109 0.023-0.301 0.015-0.194 0.036-0.443 0.064-0.746 0.024-0.303 0.052-0.645 0.082-1.024 0.03-0.376 0.062-0.754 0.095-1.134 0.033-0.376 0.064-0.739 0.091-1.088 0.03-0.349 0.056-0.645 0.078-0.888zM83.007 233.043v0c0.021-0.319 0.038-0.564 0.05-0.738 0.009-0.17 0.018-0.297 0.028-0.382 0.006-0.085 0.009-0.138 0.009-0.159 0-0.021 0.002-0.038 0.004-0.05 0.003-0.012 0.008-0.035 0.014-0.069 0.003-0.033 0.008-0.103 0.014-0.209 0.009-0.109 0.021-0.267 0.036-0.473 0.015-0.206 0.036-0.492 0.064-0.856v0c0.015-0.243 0.039-0.411 0.073-0.506 0.033-0.094 0.117-0.155 0.25-0.182v0c0.631-0.127 1.291-0.259 1.98-0.396 0.689-0.137 1.355-0.313 1.998-0.528v0c0.021-0.006 0.055-0.009 0.101-0.009v0c0.021 0.042 0.052 0.071 0.091 0.087v0l0.032 0.022-0.246 3.046c-0.021 0.246-0.049 0.416-0.082 0.51-0.033 0.097-0.114 0.156-0.241 0.177v0c-0.628 0.118-1.264 0.249-1.908 0.392-0.646 0.14-1.329 0.281-2.048 0.423v0c-0.021 0.006-0.055 0.009-0.1 0.009v0c-0.079 0-0.118-0.036-0.119-0.109zM120.863 246.267l-2.704 0.755c-0.079 0.021-0.185 0.056-0.319 0.105-0.134 0.049-0.264 0.073-0.391 0.073v0c-0.103 0-0.194-0.026-0.274-0.077-0.076-0.052-0.114-0.141-0.113-0.269v0-0.064c0.042-0.401 0.079-0.74 0.109-1.019 0.03-0.276 0.058-0.528 0.082-0.756 0.027-0.225 0.05-0.451 0.068-0.678 0.018-0.225 0.042-0.487 0.073-0.788 0.03-0.3 0.065-0.656 0.105-1.065 0.042-0.413 0.093-0.927 0.15-1.543v0c0.036-0.376 0.07-0.76 0.1-1.152 0.03-0.395 0.046-0.759 0.046-1.092v0c0-0.222-0.017-0.426-0.05-0.615-0.033-0.188-0.093-0.352-0.178-0.492-0.085-0.137-0.202-0.241-0.351-0.314-0.149-0.076-0.338-0.114-0.569-0.113v0c-0.17 0-0.405 0.038-0.705 0.113-0.3 0.073-0.598 0.194-0.892 0.364-0.297 0.17-0.561 0.395-0.792 0.674-0.228 0.279-0.357 0.622-0.387 1.029v0c-0.046 0.549-0.086 1.018-0.123 1.407-0.036 0.388-0.07 0.718-0.1 0.987-0.03 0.27-0.055 0.49-0.073 0.66-0.018 0.17-0.03 0.314-0.037 0.433v0c-0.009 0.03-0.021 0.112-0.036 0.246-0.012 0.134-0.029 0.293-0.05 0.478-0.018 0.185-0.036 0.382-0.055 0.591-0.018 0.206-0.036 0.402-0.054 0.588-0.018 0.185-0.033 0.344-0.046 0.478-0.009 0.134-0.014 0.215-0.014 0.245v0c0 0.058 0.002 0.108 0.005 0.151 0.003 0.039 0.005 0.077 0.005 0.113v0c0 0.061-0.027 0.111-0.082 0.151-0.058 0.042-0.182 0.09-0.374 0.141v0l-2.945 1.01c-0.082 0.03-0.19 0.067-0.323 0.11-0.134 0.046-0.263 0.068-0.387 0.068v0c-0.103 0-0.194-0.026-0.273-0.077-0.079-0.052-0.118-0.141-0.119-0.269v0l1.011-11.358c0.024-0.243 0.053-0.411 0.087-0.505 0.033-0.091 0.117-0.152 0.25-0.182v0c0.674-0.134 1.366-0.269 2.076-0.405 0.713-0.137 1.407-0.313 2.08-0.528v0c0.058 0 0.093 0.009 0.105 0.027 0.012 0.018 0.018 0.046 0.018 0.082v0c0 0.015-0.003 0.038-0.009 0.068-0.003 0.03-0.014 0.097-0.032 0.201-0.018 0.103-0.044 0.259-0.077 0.469-0.033 0.212-0.08 0.508-0.142 0.887v0c0.513-0.297 0.994-0.537 1.443-0.719 0.446-0.182 0.868-0.323 1.266-0.423 0.398-0.1 0.769-0.167 1.115-0.201 0.349-0.033 0.675-0.05 0.979-0.05v0c1.044 0 1.804 0.317 2.281 0.952 0.473 0.634 0.71 1.584 0.71 2.849v0c0 0.179-0.005 0.363-0.014 0.551-0.006 0.188-0.02 0.382-0.041 0.583v0l-0.514 4.779c-0.036 0.313-0.058 0.599-0.064 0.861-0.009 0.264-0.014 0.571-0.014 0.919v0c0 0.058 0.003 0.108 0.009 0.151 0.003 0.039 0.005 0.074 0.005 0.104v0c0 0.067-0.029 0.118-0.087 0.155-0.055 0.036-0.178 0.085-0.368 0.146zM143.66 241.2v0c0-0.971 0.179-1.882 0.537-2.731 0.358-0.847 0.854-1.586 1.488-2.217 0.634-0.628 1.382-1.124 2.245-1.488 0.865-0.364 1.804-0.546 2.817-0.547v0c0.689 0 1.278 0.056 1.767 0.169 0.492 0.112 0.892 0.237 1.201 0.373 0.313 0.137 0.54 0.263 0.683 0.378 0.146 0.115 0.218 0.176 0.219 0.182v0c0 0.046-0.017 0.17-0.05 0.373-0.033 0.203-0.071 0.44-0.114 0.71-0.039 0.27-0.076 0.548-0.109 0.833-0.033 0.285-0.05 0.533-0.05 0.742v0c0 0.036-0.011 0.076-0.032 0.119-0.024 0.046-0.083 0.068-0.178 0.068v0c-0.091 0-0.222-0.032-0.391-0.096-0.17-0.061-0.379-0.129-0.629-0.204-0.249-0.073-0.534-0.141-0.855-0.205-0.322-0.064-0.678-0.096-1.07-0.096v0c-0.489 0-0.93 0.088-1.325 0.264-0.391 0.173-0.728 0.413-1.01 0.719-0.282 0.31-0.499 0.675-0.651 1.097-0.152 0.422-0.228 0.877-0.228 1.366v0c0 0.513 0.08 0.948 0.241 1.307 0.158 0.358 0.37 0.651 0.638 0.878 0.267 0.225 0.575 0.388 0.924 0.492 0.346 0.106 0.712 0.159 1.097 0.159v0c0.446 0 0.895-0.062 1.347-0.187 0.452-0.121 0.879-0.293 1.279-0.514v0c0.012-0.009 0.041-0.014 0.087-0.014v0c0.036 0 0.064 0.02 0.082 0.06 0.018 0.036 0.027 0.106 0.027 0.209v0c0 0.237 0 0.523 0 0.86 0 0.337-0.002 0.66-0.004 0.97-0.003 0.307-0.008 0.568-0.014 0.783-0.009 0.215-0.017 0.323-0.023 0.323v0c-0.267 0.176-0.557 0.32-0.869 0.433-0.31 0.109-0.63 0.197-0.961 0.264-0.331 0.067-0.662 0.112-0.992 0.136-0.334 0.021-0.657 0.032-0.97 0.032v0c-0.865 0-1.672-0.144-2.421-0.432-0.75-0.288-1.401-0.696-1.953-1.225-0.549-0.525-0.983-1.156-1.302-1.894-0.319-0.737-0.478-1.554-0.478-2.449zM182.316 234.217v0c0.701 0 1.34 0.132 1.917 0.396 0.574 0.264 1.065 0.605 1.475 1.025 0.413 0.419 0.73 0.888 0.951 1.406 0.222 0.516 0.332 1.033 0.332 1.552v0c0 0.461-0.14 0.923-0.418 1.384-0.282 0.464-0.677 0.882-1.184 1.252-0.51 0.37-1.12 0.671-1.83 0.901-0.71 0.228-1.492 0.341-2.344 0.342v0c-0.446 0-0.913-0.044-1.402-0.132v0c0.03 0.319 0.123 0.593 0.277 0.824 0.155 0.228 0.352 0.416 0.592 0.564 0.237 0.149 0.505 0.258 0.806 0.328 0.3 0.07 0.608 0.105 0.924 0.105v0c0.358 0 0.701-0.03 1.029-0.091 0.331-0.064 0.648-0.147 0.951-0.251 0.303-0.103 0.596-0.218 0.879-0.346 0.282-0.124 0.549-0.25 0.801-0.377v0c0.067-0.015 0.124-0.027 0.173-0.037 0.046-0.012 0.091-0.018 0.136-0.018v0c0 0-0.002 0.059-0.004 0.177-0.003 0.118-0.005 0.285-0.005 0.501 0 0.215-0.003 0.475-0.009 0.779-0.003 0.303-0.008 0.64-0.013 1.01v0c0.021 0.036 0.036 0.073 0.045 0.109 0.006 0.036 0.009 0.067 0.009 0.091v0c0 0.088-0.082 0.184-0.246 0.287-0.161 0.103-0.373 0.211-0.637 0.323-0.264 0.112-0.564 0.22-0.901 0.324-0.337 0.103-0.68 0.197-1.029 0.282-0.346 0.085-0.683 0.152-1.011 0.2-0.325 0.049-0.61 0.073-0.855 0.073v0c-0.801 0-1.577-0.14-2.327-0.419-0.753-0.276-1.42-0.674-2.002-1.193-0.58-0.519-1.044-1.149-1.393-1.889-0.349-0.74-0.523-1.574-0.524-2.499v0c0-0.971 0.167-1.882 0.501-2.731 0.334-0.847 0.803-1.586 1.406-2.217 0.604-0.628 1.325-1.124 2.163-1.488 0.835-0.364 1.757-0.546 2.767-0.547zM182.18 237.176v0c-0.303 0-0.583 0.065-0.838 0.196-0.255 0.127-0.489 0.313-0.701 0.555-0.212 0.24-0.396 0.528-0.551 0.865-0.155 0.337-0.281 0.709-0.377 1.115v0c0.765-0.134 1.399-0.273 1.902-0.418 0.504-0.149 0.907-0.299 1.211-0.451 0.303-0.152 0.517-0.303 0.642-0.455 0.127-0.152 0.191-0.299 0.191-0.442v0c0-0.134-0.05-0.259-0.15-0.378-0.1-0.118-0.225-0.222-0.373-0.309-0.149-0.088-0.31-0.156-0.483-0.205-0.173-0.049-0.331-0.073-0.473-0.073zM243.611 236.575v0c-0.058 0.124-0.158 0.31-0.301 0.556-0.14 0.246-0.307 0.525-0.5 0.837-0.191 0.316-0.398 0.656-0.619 1.02-0.225 0.361-0.449 0.722-0.674 1.083-0.225 0.358-0.443 0.704-0.656 1.038-0.212 0.334-0.398 0.628-0.555 0.883-0.161 0.255-0.288 0.458-0.382 0.61-0.097 0.152-0.146 0.228-0.146 0.228v0c0 0.009 0.029 0.014 0.086 0.014v0c0.091 0 0.238-0.009 0.442-0.028 0.203-0.018 0.439-0.039 0.706-0.063 0.267-0.021 0.554-0.049 0.86-0.082 0.307-0.033 0.61-0.061 0.91-0.082 0.3-0.024 0.583-0.046 0.847-0.064 0.264-0.018 0.484-0.027 0.66-0.027v0c0.379 0 0.569 0.082 0.569 0.245v0c0 0.103-0.029 0.206-0.086 0.31-0.055 0.103-0.082 0.162-0.082 0.178v0l-1.603 2.99c-0.012 0-0.021 0.017-0.027 0.05-0.003 0.033-0.012 0.05-0.027 0.05v0c-0.149 0.149-0.285 0.231-0.41 0.246-0.127 0.015-0.235 0.03-0.323 0.046v0c-0.628 0.006-1.184 0.012-1.666 0.018-0.483 0.009-0.918 0.015-1.307 0.018-0.388 0.003-0.74 0.008-1.056 0.014-0.316 0.003-0.624 0.006-0.924 0.009-0.297 0.003-0.598 0.005-0.901 0.004-0.307 0-0.64 0-1.002 0v0c-0.713 0-1.208-0.055-1.484-0.163-0.279-0.112-0.419-0.276-0.418-0.492v0c0-0.149 0.05-0.316 0.15-0.501 0.1-0.185 0.228-0.396 0.382-0.632v0c0.476-0.674 0.959-1.357 1.448-2.049 0.489-0.695 0.954-1.361 1.397-1.998 0.446-0.634 0.854-1.225 1.225-1.771 0.37-0.543 0.678-1.004 0.924-1.384v0c0.191-0.31 0.331-0.601 0.419-0.874 0.091-0.27 0.137-0.523 0.136-0.76v0c0-0.294-0.062-0.557-0.186-0.788-0.121-0.231-0.291-0.425-0.51-0.582-0.218-0.161-0.472-0.282-0.761-0.365-0.288-0.079-0.599-0.118-0.933-0.118v0c-0.422 0-0.851 0.064-1.288 0.191-0.437 0.13-0.868 0.332-1.293 0.606v0c-0.146 0.097-0.264 0.146-0.355 0.145v0c-0.082 0-0.135-0.033-0.159-0.1-0.027-0.067-0.041-0.129-0.041-0.186v0c0-0.291 0.038-0.63 0.114-1.016 0.073-0.385 0.156-0.756 0.25-1.11 0.091-0.355 0.174-0.662 0.25-0.92 0.073-0.261 0.109-0.41 0.11-0.446v0c0.015 0 0.115-0.068 0.3-0.205 0.185-0.137 0.473-0.288 0.865-0.455 0.395-0.167 0.904-0.322 1.53-0.464 0.625-0.14 1.39-0.209 2.294-0.21v0c0.534 0 1.07 0.109 1.607 0.328 0.537 0.218 1.018 0.52 1.443 0.906 0.428 0.385 0.775 0.839 1.042 1.361 0.267 0.522 0.401 1.083 0.401 1.684v0c0 0.364-0.056 0.733-0.169 1.107-0.112 0.373-0.287 0.76-0.523 1.16zM266.808 239.088v0c0-1.269 0.181-2.455 0.542-3.56 0.358-1.102 0.895-2.062 1.612-2.881 0.713-0.819 1.605-1.463 2.676-1.93 1.071-0.464 2.322-0.696 3.751-0.697v0c0.895 0 1.713 0.105 2.454 0.314 0.744 0.212 1.404 0.505 1.98 0.879 0.577 0.373 1.08 0.819 1.511 1.338 0.431 0.519 0.786 1.083 1.065 1.694 0.282 0.613 0.492 1.261 0.629 1.943 0.14 0.68 0.209 1.372 0.209 2.076v0c0 1.399-0.205 2.652-0.615 3.76-0.407 1.108-0.98 2.045-1.72 2.813-0.74 0.768-1.63 1.353-2.668 1.758-1.038 0.404-2.187 0.605-3.446 0.605v0c-1.171 0-2.246-0.191-3.223-0.574-0.977-0.382-1.818-0.927-2.522-1.634-0.704-0.707-1.252-1.558-1.643-2.554-0.395-0.998-0.592-2.115-0.592-3.35zM271.611 238.656v0c0 0.592 0.046 1.191 0.136 1.798 0.094 0.607 0.263 1.159 0.506 1.657 0.246 0.495 0.581 0.898 1.006 1.211 0.428 0.31 0.971 0.464 1.629 0.464v0c0.473 0 0.892-0.08 1.257-0.241 0.364-0.164 0.678-0.385 0.942-0.665 0.267-0.276 0.493-0.598 0.678-0.965 0.185-0.367 0.334-0.759 0.446-1.174 0.112-0.413 0.191-0.838 0.237-1.275 0.049-0.437 0.073-0.86 0.073-1.27v0c0-0.331-0.024-0.683-0.073-1.056-0.046-0.37-0.121-0.737-0.227-1.102-0.103-0.367-0.24-0.716-0.41-1.047-0.17-0.331-0.373-0.624-0.61-0.878-0.237-0.255-0.514-0.457-0.833-0.606-0.319-0.149-0.683-0.223-1.093-0.223v0c-0.479 0-0.903 0.076-1.27 0.228-0.367 0.152-0.687 0.358-0.96 0.619-0.276 0.258-0.504 0.561-0.683 0.91-0.182 0.349-0.329 0.721-0.442 1.116-0.109 0.398-0.188 0.809-0.236 1.233-0.049 0.428-0.073 0.85-0.073 1.266zM314.801 236.575v0c-0.061 0.124-0.161 0.31-0.3 0.556-0.143 0.246-0.31 0.525-0.501 0.837-0.191 0.316-0.399 0.656-0.623 1.02-0.222 0.361-0.445 0.722-0.669 1.083-0.228 0.358-0.446 0.704-0.656 1.038-0.212 0.334-0.399 0.628-0.56 0.883-0.158 0.255-0.285 0.458-0.382 0.61-0.097 0.152-0.146 0.228-0.146 0.228v0c0 0.009 0.03 0.014 0.091 0.014v0c0.088 0 0.234-0.009 0.437-0.028 0.206-0.018 0.442-0.039 0.706-0.063 0.267-0.021 0.555-0.049 0.865-0.082 0.307-0.033 0.61-0.061 0.91-0.082 0.3-0.024 0.581-0.046 0.842-0.064 0.264-0.018 0.486-0.027 0.665-0.027v0c0.376 0 0.564 0.082 0.564 0.245v0c0 0.103-0.027 0.206-0.082 0.31-0.055 0.103-0.082 0.162-0.082 0.178v0l-1.602 2.99c-0.015 0-0.024 0.017-0.027 0.05-0.003 0.033-0.012 0.05-0.028 0.05v0c-0.149 0.149-0.287 0.231-0.414 0.246-0.124 0.015-0.231 0.03-0.319 0.046v0c-0.631 0.006-1.188 0.012-1.67 0.018-0.479 0.009-0.913 0.015-1.302 0.018-0.391 0.003-0.744 0.008-1.056 0.014-0.316 0.003-0.624 0.006-0.924 0.009-0.3 0.003-0.602 0.005-0.906 0.004-0.303 0-0.637 0-1.002 0v0c-0.71 0-1.205-0.055-1.484-0.163-0.276-0.112-0.414-0.276-0.414-0.492v0c0-0.149 0.05-0.316 0.15-0.501 0.1-0.185 0.228-0.396 0.383-0.632v0c0.473-0.674 0.954-1.357 1.443-2.049 0.492-0.695 0.959-1.361 1.402-1.998 0.446-0.634 0.854-1.225 1.224-1.771 0.37-0.543 0.677-1.004 0.92-1.384v0c0.194-0.31 0.335-0.601 0.423-0.874 0.088-0.27 0.132-0.523 0.132-0.76v0c0-0.294-0.061-0.557-0.182-0.788-0.121-0.231-0.291-0.425-0.51-0.582-0.218-0.161-0.473-0.282-0.764-0.365-0.288-0.079-0.599-0.118-0.934-0.118v0c-0.422 0-0.851 0.064-1.288 0.191-0.437 0.13-0.866 0.332-1.288 0.606v0c-0.149 0.097-0.267 0.146-0.355 0.145v0c-0.082 0-0.137-0.033-0.164-0.1-0.024-0.067-0.036-0.129-0.036-0.186v0c0-0.291 0.036-0.63 0.109-1.016 0.076-0.385 0.159-0.756 0.25-1.11 0.094-0.355 0.178-0.662 0.25-0.92 0.076-0.261 0.114-0.41 0.114-0.446v0c0.015 0 0.115-0.068 0.301-0.205 0.185-0.137 0.473-0.288 0.865-0.455 0.391-0.167 0.901-0.322 1.529-0.464 0.625-0.14 1.39-0.209 2.294-0.21v0c0.534 0 1.07 0.109 1.607 0.328 0.537 0.218 1.018 0.52 1.443 0.906 0.425 0.385 0.771 0.839 1.038 1.361 0.267 0.522 0.401 1.083 0.401 1.684v0c0 0.364-0.055 0.733-0.164 1.107-0.112 0.373-0.287 0.76-0.524 1.16zM343.689 247.154v0c-0.158 0.015-0.31 0.027-0.455 0.037-0.149 0.006-0.294 0.009-0.437 0.009v0c-0.413 0-0.803-0.026-1.17-0.077-0.367-0.052-0.728-0.127-1.083-0.228-0.355-0.1-0.716-0.223-1.084-0.369-0.367-0.143-0.762-0.303-1.183-0.482v0c-0.097-0.021-0.17-0.067-0.219-0.137-0.049-0.073-0.082-0.153-0.1-0.241-0.018-0.088-0.029-0.179-0.032-0.273-0.003-0.091-0.009-0.17-0.018-0.237v0c-0.015-0.097-0.038-0.266-0.068-0.505-0.027-0.243-0.059-0.498-0.096-0.765-0.039-0.264-0.077-0.517-0.114-0.76-0.036-0.24-0.065-0.404-0.086-0.492v0c-0.009-0.015-0.014-0.046-0.014-0.091v0c0-0.103 0.039-0.187 0.119-0.25 0.076-0.064 0.155-0.096 0.236-0.096v0c0.036 0 0.07 0.008 0.1 0.023v0c0.261 0.164 0.528 0.335 0.802 0.514 0.273 0.176 0.566 0.337 0.878 0.483 0.31 0.143 0.643 0.263 1.002 0.36 0.355 0.097 0.751 0.146 1.188 0.145v0c0.555 0 0.974-0.117 1.256-0.35 0.279-0.234 0.419-0.633 0.419-1.198v0c0-0.176-0.018-0.373-0.055-0.591-0.036-0.218-0.112-0.422-0.227-0.61-0.115-0.191-0.284-0.351-0.506-0.478-0.222-0.13-0.514-0.196-0.878-0.196v0h-1.999c0-0.036 0.011-0.141 0.032-0.314 0.021-0.17 0.049-0.375 0.082-0.615 0.033-0.24 0.07-0.495 0.11-0.764 0.036-0.273 0.071-0.525 0.104-0.756 0.033-0.234 0.062-0.432 0.087-0.596 0.027-0.164 0.044-0.253 0.05-0.269v0c0.046-0.237 0.093-0.398 0.141-0.482 0.049-0.085 0.094-0.127 0.136-0.128v0c0.134 0.052 0.272 0.083 0.415 0.096 0.14 0.009 0.279 0.014 0.419 0.013v0c0.513 0 0.913-0.137 1.201-0.409 0.288-0.273 0.432-0.674 0.433-1.202v0c0-0.176-0.026-0.349-0.078-0.519-0.052-0.17-0.135-0.32-0.25-0.451-0.112-0.13-0.256-0.237-0.432-0.318-0.173-0.082-0.382-0.123-0.629-0.123v0c-0.267 0-0.539 0.017-0.815 0.05-0.279 0.033-0.554 0.079-0.823 0.136-0.27 0.055-0.531 0.115-0.783 0.182-0.252 0.067-0.481 0.134-0.688 0.201v0c0.021-0.134 0.032-0.319 0.032-0.556v0c0-0.103-0.002-0.214-0.004-0.332-0.006-0.118-0.009-0.241-0.01-0.369v0c0-0.231 0.008-0.464 0.023-0.701 0.015-0.237 0.049-0.455 0.1-0.655 0.052-0.2 0.126-0.375 0.223-0.524 0.097-0.146 0.231-0.246 0.401-0.3v0c0.416-0.13 0.774-0.234 1.074-0.31 0.3-0.073 0.58-0.127 0.838-0.164 0.258-0.039 0.517-0.064 0.778-0.072 0.258-0.012 0.554-0.018 0.888-0.019v0c0.607 0 1.225 0.082 1.853 0.246 0.625 0.161 1.191 0.413 1.698 0.756 0.507 0.34 0.923 0.771 1.247 1.293 0.322 0.522 0.483 1.143 0.482 1.861v0c0 0.467-0.065 0.894-0.195 1.28-0.13 0.385-0.294 0.73-0.492 1.033-0.2 0.303-0.416 0.568-0.646 0.792-0.231 0.228-0.446 0.419-0.647 0.574v0c0.225 0.127 0.466 0.293 0.724 0.496 0.258 0.203 0.496 0.466 0.715 0.787 0.218 0.322 0.401 0.706 0.546 1.152 0.146 0.443 0.218 0.965 0.218 1.566v0c0 0.631-0.121 1.25-0.364 1.857-0.24 0.607-0.571 1.155-0.992 1.643-0.422 0.489-0.923 0.894-1.502 1.216-0.577 0.325-1.202 0.516-1.876 0.573z" fill="#2b7856" fill-rule="nonzero" stroke="none" stroke-width="1" stroke-linecap="butt" stroke-linejoin="miter" stroke-miterlimit="10" stroke-dasharray="" stroke-dashoffset="0" font-family="none" font-weight="none" font-size="none" text-anchor="none" style="mix-blend-mode: normal" data-fill-palette-color="secondary"></path></g></g><g transform="matrix(1,0,0,1,27.932986258596713,34.47671936035157)"><svg viewBox="0 0 301.3266544359316 173.04" height="173.04" width="301.3266544359316"><g><svg viewBox="0 0 316.416 181.705215366673" height="173.04" width="301.3266544359316"><g transform="matrix(1,0,0,1,0,136.27977460837917)"><svg viewBox="0 0 316.416 45.42544075829384" height="45.42544075829384" width="316.416"><g><svg viewBox="0 0 316.416 45.42544075829384" height="45.42544075829384" width="316.416"><g><svg viewBox="0 0 316.416 45.42544075829384" height="45.42544075829384" width="316.416"><g transform="matrix(1,0,0,1,0,0)"><svg width="316.416" viewBox="1.6500000953674316 -35.5 253.1800079345703 36.349998474121094" height="45.42544075829384" data-palette-color="#2c3e50"><path d="M18.25-35.5Q24.95-35.5 29.8-31.25L29.8-31.25 25.65-26.9Q23.8-28.3 22.23-28.93 20.65-29.55 18.6-29.55L18.6-29.55Q14.75-29.55 12.45-26.53 10.15-23.5 10.15-17.35L10.15-17.35Q10.15-10.7 11.9-7.93 13.65-5.15 17.35-5.15L17.35-5.15Q19.95-5.15 22.05-6.3L22.05-6.3 22.05-14.15 17.55-14.15 16.75-19.95 30-19.95 30-2.8Q27.3-1.05 24.05-0.1 20.8 0.85 17.55 0.85L17.55 0.85Q9.65 0.85 5.65-3.78 1.65-8.4 1.65-17.35L1.65-17.35Q1.65-23.05 3.83-27.15 6-31.25 9.78-33.38 13.55-35.5 18.25-35.5L18.25-35.5ZM56.45-7.7Q56.45-6.2 56.87-5.5 57.3-4.8 58.25-4.45L58.25-4.45 56.6 0.7Q54.15 0.5 52.6-0.38 51.05-1.25 50.2-3.15L50.2-3.15Q47.6 0.85 42.2 0.85L42.2 0.85Q38.25 0.85 35.9-1.45 33.55-3.75 33.55-7.45L33.55-7.45Q33.55-11.8 36.75-14.1 39.95-16.4 46-16.4L46-16.4 48.7-16.4 48.7-17.55Q48.7-19.9 47.7-20.78 46.7-21.65 44.2-21.65L44.2-21.65Q42.9-21.65 41.05-21.28 39.2-20.9 37.25-20.25L37.25-20.25 35.45-25.45Q37.95-26.4 40.57-26.9 43.2-27.4 45.45-27.4L45.45-27.4Q51.15-27.4 53.8-25.05 56.45-22.7 56.45-18L56.45-18 56.45-7.7ZM44.5-4.8Q47.2-4.8 48.7-7.35L48.7-7.35 48.7-12.05 46.75-12.05Q44.05-12.05 42.72-11.1 41.4-10.15 41.4-8.15L41.4-8.15Q41.4-6.55 42.22-5.68 43.05-4.8 44.5-4.8L44.5-4.8ZM92.1-27.4Q95.25-27.4 97.15-25.28 99.05-23.15 99.05-19.4L99.05-19.4 99.05 0 91.15 0 91.15-18.05Q91.15-21.6 88.9-21.6L88.9-21.6Q87.65-21.6 86.7-20.75 85.75-19.9 84.85-18.15L84.85-18.15 84.85 0 76.95 0 76.95-18.05Q76.95-21.6 74.7-21.6L74.7-21.6Q73.5-21.6 72.52-20.73 71.55-19.85 70.65-18.15L70.65-18.15 70.65 0 62.75 0 62.75-26.55 69.65-26.55 70.2-23.45Q71.75-25.45 73.62-26.43 75.5-27.4 77.9-27.4L77.9-27.4Q80.15-27.4 81.77-26.3 83.4-25.2 84.15-23.2L84.15-23.2Q85.75-25.35 87.67-26.38 89.6-27.4 92.1-27.4L92.1-27.4ZM128.14-13.8Q128.14-12.15 127.99-10.95L127.99-10.95 111.54-10.95Q111.94-7.6 113.44-6.25 114.94-4.9 117.59-4.9L117.59-4.9Q119.19-4.9 120.69-5.48 122.19-6.05 123.94-7.25L123.94-7.25 127.19-2.85Q122.54 0.85 116.84 0.85L116.84 0.85Q110.39 0.85 106.94-2.95 103.49-6.75 103.49-13.15L103.49-13.15Q103.49-17.2 104.94-20.43 106.39-23.65 109.19-25.53 111.99-27.4 115.89-27.4L115.89-27.4Q121.64-27.4 124.89-23.8 128.14-20.2 128.14-13.8L128.14-13.8ZM120.39-15.7L120.39-16.05Q120.29-22.15 116.09-22.15L116.09-22.15Q114.04-22.15 112.92-20.65 111.79-19.15 111.54-15.7L111.54-15.7 120.39-15.7ZM143.89-35.5Q147.79-35.5 150.67-34.4 153.54-33.3 155.89-31.05L155.89-31.05 152.09-26.6Q148.54-29.5 144.49-29.5L144.49-29.5Q142.34-29.5 141.09-28.63 139.84-27.75 139.84-26.1L139.84-26.1Q139.84-24.95 140.39-24.23 140.94-23.5 142.34-22.85 143.74-22.2 146.54-21.3L146.54-21.3Q151.84-19.6 154.34-17.13 156.84-14.65 156.84-10.1L156.84-10.1Q156.84-6.85 155.19-4.38 153.54-1.9 150.44-0.53 147.34 0.85 143.09 0.85L143.09 0.85Q138.84 0.85 135.56-0.5 132.29-1.85 129.94-4.1L129.94-4.1 134.09-8.65Q136.09-6.95 138.22-6.1 140.34-5.25 142.84-5.25L142.84-5.25Q145.39-5.25 146.87-6.38 148.34-7.5 148.34-9.5L148.34-9.5Q148.34-10.8 147.79-11.68 147.24-12.55 145.89-13.25 144.54-13.95 141.99-14.75L141.99-14.75Q136.24-16.5 133.81-19.05 131.39-21.6 131.39-25.5L131.39-25.5Q131.39-28.5 132.99-30.78 134.59-33.05 137.44-34.27 140.29-35.5 143.89-35.5L143.89-35.5ZM188.14 0L179.94 0 179.94-14.85 169.54-14.85 169.54 0 161.34 0 161.34-34.65 169.54-34.65 169.54-21.25 179.94-21.25 179.94-34.65 188.14-34.65 188.14 0ZM208.64-35.5Q216.04-35.5 220.16-30.75 224.29-26 224.29-17.35L224.29-17.35Q224.29-11.7 222.41-7.6 220.54-3.5 217.01-1.33 213.49 0.85 208.64 0.85L208.64 0.85Q203.79 0.85 200.29-1.3 196.79-3.45 194.91-7.53 193.04-11.6 193.04-17.35L193.04-17.35Q193.04-22.95 194.91-27.05 196.79-31.15 200.29-33.33 203.79-35.5 208.64-35.5L208.64-35.5ZM208.64-29.5Q205.09-29.5 203.36-26.63 201.64-23.75 201.64-17.35L201.64-17.35Q201.64-10.95 203.39-8.05 205.14-5.15 208.64-5.15L208.64-5.15Q212.24-5.15 213.96-8.03 215.69-10.9 215.69-17.35L215.69-17.35Q215.69-23.8 213.94-26.65 212.19-29.5 208.64-29.5L208.64-29.5ZM240.38-34.65Q247.23-34.65 251.03-31.8 254.83-28.95 254.83-23.35L254.83-23.35Q254.83-17.5 251.11-14.53 247.38-11.55 241.13-11.55L241.13-11.55 237.38-11.55 237.38 0 229.18 0 229.18-34.65 240.38-34.65ZM240.43-17.45Q243.33-17.45 244.86-18.82 246.38-20.2 246.38-23.35L246.38-23.35Q246.38-28.8 240.28-28.8L240.28-28.8 237.38-28.8 237.38-17.45 240.43-17.45Z" opacity="1" transform="matrix(1,0,0,1,0,0)" fill="#2c3e50" class="undefined-text-0" data-fill-palette-color="primary" id="text-0"></path></svg></g></svg></g></svg></g></svg></g><g transform="matrix(1,0,0,1,95.43004087203789,0)"><svg viewBox="0 0 125.55591825592421 125.55591825592418" height="125.55591825592418" width="125.55591825592421"><g><svg></svg></g><g id="icon-0"><svg viewBox="0 0 125.55591825592421 125.55591825592418" height="125.55591825592418" width="125.55591825592421"><g><path xmlns="http://www.w3.org/2000/svg" d="M37.667 125.556c-20.803 0-37.667-16.864-37.667-37.667v-50.222c0-20.803 16.864-37.667 37.667-37.667h50.222c20.803 0 37.667 16.864 37.667 37.667v50.222c0 20.803-16.864 37.667-37.667 37.667z" fill="#42b983" fill-rule="nonzero" stroke="none" stroke-width="1" stroke-linecap="butt" stroke-linejoin="miter" stroke-miterlimit="10" stroke-dasharray="" stroke-dashoffset="0" font-family="none" font-weight="none" font-size="none" text-anchor="none" style="mix-blend-mode: normal" data-fill-palette-color="accent"></path></g><g transform="matrix(1,0,0,1,21.835811870595528,25.111183651184838)"><svg viewBox="0 0 81.88429451473316 75.33355095355451" height="75.33355095355451" width="81.88429451473316"><g><svg xmlns:x="http://ns.adobe.com/Extensibility/1.0/" xmlns:i="http://ns.adobe.com/AdobeIllustrator/10.0/" xmlns:graph="http://ns.adobe.com/Graphs/1.0/" xmlns="http://www.w3.org/2000/svg" xmlns:xlink="http://www.w3.org/1999/xlink" version="1.1" x="0" y="0" viewBox="7 9 50 46" enable-background="new 0 0 64 64" xml:space="preserve" height="75.33355095355451" width="81.88429451473316" class="icon-a-0" data-fill-palette-color="quaternary" id="a-0"><g fill="#051726" data-fill-palette-color="quaternary"><path d="M46 25H33v-9c0-2.757 2.243-5 5-5s5 2.243 5 5 2.243 5 5 5 5-2.243 5-5c0-0.552-0.447-1-1-1s-1 0.448-1 1c0 1.654-1.346 3-3 3s-3-1.346-3-3c0-3.86-3.141-7-7-7s-7 3.14-7 7v9H18c-6.065 0-11 4.935-11 11 0 12.607 2.355 19 7 19 6.692 0 8.101-4.253 9.464-8.366 0.397-1.199 0.807-2.435 1.35-3.634h14.373c0.543 1.199 0.952 2.435 1.35 3.634C41.898 50.747 43.308 55 50 55c4.645 0 7-6.393 7-19C57 29.935 52.065 25 46 25zM22 37h-3v3c0 0.553-0.448 1-1 1s-1-0.447-1-1v-3h-3c-0.552 0-1-0.447-1-1s0.448-1 1-1h3v-3c0-0.552 0.448-1 1-1s1 0.448 1 1v3h3c0.552 0 1 0.447 1 1S22.552 37 22 37zM30 39h-4c-0.552 0-1-0.447-1-1s0.448-1 1-1h4c0.552 0 1 0.447 1 1S30.552 39 30 39zM38 39h-4c-0.553 0-1-0.447-1-1s0.447-1 1-1h4c0.553 0 1 0.447 1 1S38.553 39 38 39zM46 30c1.104 0 2 0.896 2 2s-0.896 2-2 2-2-0.896-2-2S44.896 30 46 30zM42 38c-1.104 0-2-0.896-2-2s0.896-2 2-2 2 0.896 2 2S43.104 38 42 38zM46 42c-1.104 0-2-0.896-2-2s0.896-2 2-2 2 0.896 2 2S47.104 42 46 42zM50 38c-1.104 0-2-0.896-2-2s0.896-2 2-2 2 0.896 2 2S51.104 38 50 38z" fill="#051726" data-fill-palette-color="quaternary"></path></g></svg></g></svg></g></svg></g></svg></g><g></g></svg></g></svg></g></svg></g><defs></defs></svg><rect width="357.192626953125" height="241.99343872070312" fill="none" stroke="none" visibility="hidden"></rect></g></svg></g></svg>